HIERARCHY
ROOT Hips
{
	OFFSET 0.000000 0.000000 0.000000
	CHANNELS 6 Xposition Yposition Zposition Xrotation Yrotation Zrotation
	JOINT LeftUpLeg_virtual
	{
		OFFSET 0.000000 0.000000 0.000000
		CHANNELS 3 Xrotation Yrotation Zrotation
		JOINT LeftUpLeg
		{
			OFFSET 13.026900 -6.336304 -1.092800
			CHANNELS 3 Xrotation Yrotation Zrotation
			JOINT LeftLeg
			{
				OFFSET 0.524474 -46.096886 9.782700
				CHANNELS 3 Xrotation Yrotation Zrotation
				JOINT LeftFoot
				{
					OFFSET -0.524474 -53.427422 -12.948200
					CHANNELS 3 Xrotation Yrotation Zrotation
					JOINT LeftToeBase
					{
						OFFSET 0.192200 -14.009700 16.364100
						CHANNELS 3 Xrotation Yrotation Zrotation
						JOINT LeftToe_End
						{
							OFFSET -1.784700 -0.561700 9.474800
							CHANNELS 3 Xrotation Yrotation Zrotation
							End Site
							{
								OFFSET 0 0 0
							}
						}
					}
				}
			}
		}
	}
	JOINT RightUpLeg_virtual
	{
		OFFSET 0.000000 0.000000 0.000000
		CHANNELS 3 Xrotation Yrotation Zrotation
		JOINT RightUpLeg
		{
			OFFSET -12.883000 -6.336304 -1.092800
			CHANNELS 3 Xrotation Yrotation Zrotation
			JOINT RightLeg
			{
				OFFSET -0.524587 -46.096825 9.782800
				CHANNELS 3 Xrotation Yrotation Zrotation
				JOINT RightFoot
				{
					OFFSET 0.524587 -53.427383 -12.948300
					CHANNELS 3 Xrotation Yrotation Zrotation
					JOINT RightToeBase
					{
						OFFSET -0.192200 -14.009700 16.364100
						CHANNELS 3 Xrotation Yrotation Zrotation
						JOINT RightToe_End
						{
							OFFSET 1.784700 -0.561700 9.474800
							CHANNELS 3 Xrotation Yrotation Zrotation
							End Site
							{
								OFFSET 0 0 0
							}
						}
					}
				}
			}
		}
	}
	JOINT Spine_virtual
	{
		OFFSET 0.000000 0.000000 0.000000
		CHANNELS 3 Xrotation Yrotation Zrotation
		JOINT Spine
		{
			OFFSET 0.072000 7.257294 -0.789700
			CHANNELS 3 Xrotation Yrotation Zrotation
			JOINT Spine1
			{
				OFFSET 0.000000 12.508769 -0.658067
				CHANNELS 3 Xrotation Yrotation Zrotation
				JOINT Spine1_split
				{
					OFFSET 0.000000 12.508769 -0.658067
					CHANNELS 3 Xrotation Yrotation Zrotation
					JOINT Spine2
					{
						OFFSET 0.000000 12.508769 -0.658067
						CHANNELS 3 Xrotation Yrotation Zrotation
						JOINT Neck_virtual
						{
							OFFSET 0.000000 0.000000 0.000000
							CHANNELS 3 Xrotation Yrotation Zrotation
							JOINT Neck
							{
								OFFSET 0.000000 14.033295 7.520400
								CHANNELS 3 Xrotation Yrotation Zrotation
								JOINT Head
								{
									OFFSET 0.000000 8.198502 5.703100
									CHANNELS 3 Xrotation Yrotation Zrotation
									JOINT HeadTop_End
									{
										OFFSET 0.000000 17.760803 13.332701
										CHANNELS 3 Xrotation Yrotation Zrotation
										End Site
										{
											OFFSET 0 0 0
										}
									}
								}
							}
						}
						JOINT LeftShoulder_virtual
						{
							OFFSET 0.000000 0.000000 0.000000
							CHANNELS 3 Xrotation Yrotation Zrotation
							JOINT LeftShoulder
							{
								OFFSET 6.292450 5.785301 -0.669000
								CHANNELS 3 Xrotation Yrotation Zrotation
								JOINT LeftShoulder_split
								{
									OFFSET 6.292450 5.785301 -0.669000
									CHANNELS 3 Xrotation Yrotation Zrotation
									JOINT LeftArm
									{
										OFFSET 13.907140 -6.093903 1.965100
										CHANNELS 3 Xrotation Yrotation Zrotation
										JOINT LeftForeArm
										{
											OFFSET 34.140198 0.000000 0.000000
											CHANNELS 3 Xrotation Yrotation Zrotation
											JOINT LeftHand
											{
												OFFSET 40.960209 0.000000 0.000000
												CHANNELS 3 Xrotation Yrotation Zrotation
												End Site
												{
													OFFSET 0 0 0
												}
											}
										}
									}
								}
							}
						}
						JOINT RightShoulder_virtual
						{
							OFFSET 0.000000 0.000000 0.000000
							CHANNELS 3 Xrotation Yrotation Zrotation
							JOINT RightShoulder
							{
								OFFSET -6.292450 5.785301 -0.669000
								CHANNELS 3 Xrotation Yrotation Zrotation
								JOINT RightShoulder_split
								{
									OFFSET -6.292450 5.785301 -0.669000
									CHANNELS 3 Xrotation Yrotation Zrotation
									JOINT RightArm
									{
										OFFSET -13.907140 -6.093903 1.965100
										CHANNELS 3 Xrotation Yrotation Zrotation
										JOINT RightForeArm
										{
											OFFSET -34.140198 0.000000 0.000000
											CHANNELS 3 Xrotation Yrotation Zrotation
											JOINT RightHand
											{
												OFFSET -40.960209 0.000000 0.000000
												CHANNELS 3 Xrotation Yrotation Zrotation
												End Site
												{
													OFFSET 0 0 0
												}
											}
										}
									}
								}
							}
						}
					}
				}
			}
		}
	}
}
MOTION
Frames: 10
Frame Time: 0.03333333
3.105728 108.605057 2.781712 0.000000 0.000000 0.000000 179.586738 49.943115 178.214170 -24.891344 -8.872680 10.044973 21.868983 -1.410550 0.304421 2.616585 -0.016965 -10.498661 -8.496837 1.366393 -2.054872 0.000000 0.000000 0.000000 176.199210 45.887861 -178.586429 -15.743472 -3.468374 -12.296145 41.794160 -2.733657 -1.834471 -12.201941 -8.518161 16.033092 1.937709 0.177359 0.604775 0.000000 0.000000 0.000000 177.793212 51.292043 -178.761514 5.552478 0.835620 8.835028 16.328650 0.587982 -0.576747 9.017705 13.498480 -1.269084 0.000000 0.000000 0.000000 17.159539 0.266364 -2.106513 -29.815507 -4.954571 -2.429843 -3.744394 -8.443980 6.452232 0.000000 0.000000 0.000000 19.535565 -0.124834 -1.376627 4.863266 -14.037255 -13.748204 -14.440265 -13.907332 -2.857657 21.678822 1.978603 -29.423837 46.060286 -74.552259 33.450793 0.000000 0.000000 0.000000 18.603233 1.161800 -1.047517 -0.167329 7.341765 -4.887389 9.356711 1.969770 -0.599416 -19.419689 -20.204027 67.069268 6.573674 57.881202 -8.241754 0.000000 0.000000 0.000000 
3.059655 107.695847 2.600006 0.000000 0.000000 0.000000 179.194890 50.180287 177.497670 -25.027999 -6.975122 10.716479 24.304248 -1.258435 0.318249 2.361937 -0.075904 -9.435070 -8.686057 1.417634 -2.183008 0.000000 0.000000 0.000000 175.422262 46.302447 -178.949303 -18.081649 -3.596954 -12.071495 41.605889 -3.089074 -1.123705 -11.993998 -7.933990 14.897706 2.321193 0.316280 0.749850 0.000000 0.000000 0.000000 176.595238 50.866676 -179.189412 6.168176 0.265360 8.771891 16.176381 0.337841 -0.673045 6.954829 12.015624 -3.420662 0.000000 0.000000 0.000000 16.419742 -0.020768 -1.894995 -27.609670 -5.242412 -3.167150 -2.345469 -8.193790 6.211546 0.000000 0.000000 0.000000 19.175638 -0.468610 -1.665687 4.496050 -15.504809 -13.507085 -11.301483 -12.268578 -2.716009 19.597250 2.018056 -28.730644 41.942013 -73.003931 29.188031 0.000000 0.000000 0.000000 18.853962 1.121256 -1.193871 -0.183486 8.906837 -4.071805 10.125062 -0.758498 0.278593 -20.353305 -20.151404 66.438978 5.767181 56.960629 -7.104051 0.000000 0.000000 0.000000 
2.698430 105.959435 1.899231 0.000000 0.000000 0.000000 176.215793 52.376517 178.728046 -27.019595 -4.612686 12.761869 29.287482 -1.077337 0.633315 1.467694 0.327329 -9.788263 -9.301105 1.714200 -2.381792 0.000000 0.000000 0.000000 172.521207 48.543746 -177.917439 -23.873258 -2.560818 -11.190224 43.201121 -2.440490 -0.061090 -9.005544 -6.264138 15.218946 1.522773 0.517775 0.480252 0.000000 0.000000 0.000000 173.009894 52.341485 -178.045615 6.758921 -0.295607 8.411048 15.432106 0.125716 -0.630288 5.809425 8.931461 -2.703146 0.000000 0.000000 0.000000 14.930464 -0.384297 -1.516996 -24.241812 -5.687910 -3.443602 -0.528671 -9.983273 7.351147 0.000000 0.000000 0.000000 18.186569 -0.812808 -1.918219 3.701268 -17.066406 -12.625529 -9.383065 -9.779426 -3.323270 19.427066 -0.295743 -24.907909 37.082029 -69.945802 23.616573 0.000000 0.000000 0.000000 18.618933 1.080773 -1.154306 -0.246962 10.240261 -3.477131 9.306821 -3.445900 1.147779 -20.761200 -16.214336 63.889945 4.627711 51.952079 -5.036626 0.000000 0.000000 0.000000 
1.954965 103.869675 0.763531 0.000000 0.000000 0.000000 170.648711 56.272262 -177.925458 -30.304788 -1.762370 15.836292 35.445226 -0.502085 1.048031 -1.296952 1.370010 -11.060697 -10.505550 2.105503 -2.252469 0.000000 0.000000 0.000000 167.303025 52.065678 -174.764201 -31.585636 -0.491589 -9.307754 46.199280 -1.341881 0.945071 -5.508821 -4.077594 15.505286 0.243149 0.741013 0.022874 0.000000 0.000000 0.000000 166.920206 55.007956 -174.510131 7.362278 -0.681906 7.737071 14.361699 0.019294 -0.556737 4.440381 6.089953 -0.512332 0.000000 0.000000 0.000000 13.159355 -0.673410 -1.167726 -20.853665 -6.221485 -3.005482 0.411175 -12.949200 9.368875 0.000000 0.000000 0.000000 16.906050 -1.001036 -2.148540 2.633465 -18.474448 -11.213314 -7.875129 -6.691687 -3.974970 21.069257 -2.392306 -19.533178 34.947202 -67.701942 20.357019 0.000000 0.000000 0.000000 17.934352 0.994758 -1.016652 -0.361552 10.651776 -3.620355 7.386793 -4.637719 1.763977 -19.753361 -10.059667 61.124934 4.116547 44.933687 -3.094023 0.000000 0.000000 0.000000 
1.363273 101.503036 -0.781033 0.000000 0.000000 0.000000 162.300021 60.094347 -171.685670 -34.567615 0.987058 19.545889 40.890778 0.128512 1.390354 -5.760161 2.717813 -13.506727 -11.199047 2.420997 -1.880504 0.000000 0.000000 0.000000 159.986116 56.249702 -169.491882 -40.138563 2.144119 -6.618696 50.044082 -0.722905 1.793305 -3.280669 -2.143626 13.765504 0.741281 0.956905 -0.248255 0.000000 0.000000 0.000000 158.126201 58.311005 -167.855806 7.953723 -0.753686 6.713785 13.290103 -0.010718 -0.556850 3.082709 4.390942 2.047148 0.000000 0.000000 0.000000 11.807643 -0.823820 -0.993880 -18.963527 -6.647487 -2.179359 -0.776578 -16.588354 11.656485 0.000000 0.000000 0.000000 15.629090 -0.983824 -2.377679 1.507971 -19.504423 -9.442779 -6.704205 -3.237578 -4.055557 22.794317 -1.551161 -15.089893 35.701546 -68.091085 19.998396 0.000000 0.000000 0.000000 17.110881 0.873846 -0.947534 -0.614720 9.815194 -4.747071 4.995191 -3.925365 2.187135 -17.627243 -5.101454 59.118784 4.225239 37.772018 -1.532854 0.000000 0.000000 0.000000 
0.900987 99.134529 -1.233154 0.000000 0.000000 0.000000 152.075856 62.274496 -162.874030 -40.359065 2.535726 23.699855 45.225824 -0.003073 1.342345 -9.793420 3.827654 -18.235056 -10.658403 2.657633 -1.432369 0.000000 0.000000 0.000000 150.709695 59.786538 -161.540667 -48.650392 4.805960 -4.068465 53.993629 -0.857430 2.677986 -2.295947 -0.393386 10.020406 2.820637 1.121460 -0.230935 0.000000 0.000000 0.000000 147.153694 61.223002 -158.268392 8.669306 -0.514820 5.546927 12.465077 -0.002140 -0.730638 1.680422 1.939241 3.853753 0.000000 0.000000 0.000000 11.374102 -0.809356 -1.083181 -19.450237 -6.935037 -1.325788 -4.703963 -20.000343 13.306550 0.000000 0.000000 0.000000 14.778557 -0.864005 -2.680787 0.550989 -19.649486 -7.389188 -5.912020 0.302740 -4.453081 22.897859 2.985656 -13.486273 40.608753 -72.123465 24.143785 0.000000 0.000000 0.000000 16.492764 0.662454 -1.070159 -1.157689 7.601977 -6.767267 1.869816 -1.651762 3.010681 -15.204455 -4.743080 58.531409 4.791773 31.825471 -0.576196 0.000000 0.000000 0.000000 
0.452993 96.633614 -0.975533 0.000000 0.000000 0.000000 142.377438 62.650293 -153.859000 -46.998965 2.312515 28.083182 48.875693 -0.778293 0.781604 -11.366759 4.534834 -23.804954 -9.539469 2.860039 -0.877014 0.000000 0.000000 0.000000 141.232671 61.423857 -152.744149 -56.779171 7.536035 -2.295779 57.764139 -0.901681 3.484199 -1.351022 2.084070 6.431432 4.197150 1.228320 -0.015602 0.000000 0.000000 0.000000 135.789830 62.815870 -147.463047 9.521717 -0.079696 4.317307 12.054387 -0.043805 -1.105257 -0.000498 -0.815022 3.601513 0.000000 0.000000 0.000000 11.905051 -0.697928 -1.452628 -22.358081 -6.991690 -0.768310 -11.036493 -22.987403 13.876697 0.000000 0.000000 0.000000 14.641168 -0.682057 -3.161875 -0.058308 -18.932468 -5.479261 -5.850874 2.749772 -6.162572 21.906814 10.999567 -15.442120 55.201855 -78.161659 38.511926 0.000000 0.000000 0.000000 16.267873 0.411140 -1.474989 -1.832274 4.793901 -8.980345 -2.216692 1.829854 4.389369 -13.724089 -11.747382 59.443328 5.046916 27.415556 0.070604 0.000000 0.000000 0.000000 
0.134939 93.615356 -0.043457 0.000000 0.000000 0.000000 135.427857 61.601968 -146.761504 -53.217965 0.447513 31.609788 51.968451 -1.307281 -0.462952 -11.197611 5.257730 -27.340837 -8.481107 3.037894 -0.406206 0.000000 0.000000 0.000000 133.696609 61.452626 -145.455162 -63.897390 10.127419 -2.123748 61.311050 -0.357074 4.145748 0.277592 5.621547 4.470874 3.143946 1.257068 0.147133 0.000000 0.000000 0.000000 125.843927 63.235319 -137.449347 10.357955 0.406209 3.194725 12.176405 -0.284233 -1.581068 -1.173702 -1.931317 3.236824 0.000000 0.000000 0.000000 13.212036 -0.662851 -2.015920 -27.008950 -6.960326 -0.865967 -18.693809 -25.310634 13.541606 0.000000 0.000000 0.000000 15.260275 -0.593528 -3.748411 -0.198184 -17.703562 -4.065953 -6.868585 2.081663 -9.474762 22.144259 21.465775 -21.204155 92.064632 -82.044779 75.710919 0.000000 0.000000 0.000000 16.628241 0.201187 -2.060737 -2.623115 2.059837 -10.415561 -5.173611 5.533660 6.429619 -14.286041 -25.387794 60.036789 4.549725 25.245115 0.468922 0.000000 0.000000 0.000000 
-0.136168 89.979149 1.469467 0.000000 0.000000 0.000000 131.697850 59.951664 -142.360144 -58.019814 -2.397296 33.685646 54.765976 -1.075526 -2.163155 -11.098841 6.504666 -27.611829 -8.867202 3.314989 -0.011380 0.000000 0.000000 0.000000 128.829239 60.404451 -140.445533 -69.577033 12.129998 -4.192425 64.227766 0.681545 4.713640 1.906932 9.949414 4.672159 -0.474340 1.136142 0.143104 0.000000 0.000000 0.000000 118.551484 62.697141 -129.686550 11.199070 0.807369 2.598849 12.625459 -0.694555 -2.109276 -1.333372 -0.745257 2.408589 0.000000 0.000000 0.000000 14.750121 -0.751116 -2.700633 -31.794903 -6.785580 -1.317767 -26.181985 -26.451868 12.782843 0.000000 0.000000 0.000000 16.438945 -0.627199 -4.322974 0.203937 -16.223031 -3.238386 -7.876871 -1.828486 -13.099166 24.919716 31.999522 -30.041064 130.450070 -80.924915 114.934298 0.000000 0.000000 0.000000 17.469413 0.029656 -2.747381 -3.327340 -0.112953 -10.257695 -5.960383 8.387573 8.209194 -17.716153 -41.434639 58.378692 3.180595 26.362310 0.705521 0.000000 0.000000 0.000000 
-0.369515 85.591988 3.014137 0.000000 0.000000 0.000000 130.282498 58.166369 -140.190179 -61.483088 -5.085765 34.711315 58.324228 0.522119 -4.160563 -12.791912 8.310073 -23.516889 -10.840085 3.716443 0.011610 0.000000 0.000000 0.000000 126.309841 58.838180 -137.703826 -73.838969 13.264229 -8.494823 66.559688 1.962727 5.274388 1.935017 14.846348 6.605652 -4.194309 0.903196 0.095002 0.000000 0.000000 0.000000 113.830860 61.489106 -124.221374 11.917826 1.150694 2.817777 13.227694 -1.145804 -2.620839 -0.839483 2.448436 2.041909 0.000000 0.000000 0.000000 16.029382 -0.827380 -3.394378 -35.412110 -6.573457 -1.851473 -31.958595 -26.246093 12.488464 0.000000 0.000000 0.000000 17.758605 -0.614084 -4.716184 1.080336 -15.064339 -2.968711 -9.873090 -7.304645 -16.633150 29.075559 41.888232 -39.681538 142.084573 -78.863126 127.931301 0.000000 0.000000 0.000000 18.484338 -0.106410 -3.430265 -3.784286 -1.556632 -7.880303 -4.741076 9.747589 9.360556 -25.500646 -54.125868 52.243236 0.995968 30.154179 1.034101 0.000000 0.000000 0.000000 
